<svg id="레이어_1" data-name="레이어 1" xmlns="http://www.w3.org/2000/svg" viewBox="0 0 500 254.79"><defs><style>.cls-1{fill:#040000;}</style></defs><path class="cls-1" d="M250,162.61c26.09,0,53.51,5.6,81.51,16.66,23.36,9.23,47.15,22.24,70.7,38.66A447.22,447.22,0,0,1,442.84,250a447.22,447.22,0,0,1-40.63,32.07c-23.55,16.42-47.34,29.43-70.7,38.66-28,11.06-55.42,16.66-81.51,16.66s-53.51-5.6-81.51-16.66c-23.36-9.23-47.15-22.24-70.7-38.66A447.22,447.22,0,0,1,57.16,250a447.22,447.22,0,0,1,40.63-32.07c23.55-16.42,47.34-29.43,70.7-38.66,28-11.06,55.42-16.66,81.51-16.66m0-40C111.93,122.61,0,250,0,250S111.93,377.39,250,377.39,500,250,500,250,388.07,122.61,250,122.61Z" transform="translate(0 -122.61)"/><path class="cls-1" d="M250,166.5A83.5,83.5,0,1,1,166.5,250,83.6,83.6,0,0,1,250,166.5m0-40A123.5,123.5,0,1,0,373.5,250,123.5,123.5,0,0,0,250,126.5Z" transform="translate(0 -122.61)"/><path class="cls-1" d="M283.74,224.1a17.11,17.11,0,1,1-4.07-4.57,42.42,42.42,0,1,0,4.07,4.57Z" transform="translate(0 -122.61)"/></svg>